<svg width="72" height="72" viewBox="0 0 72 72" fill="none" xmlns="http://www.w3.org/2000/svg">
<rect width="72" height="72" rx="14" fill="#242731"/>
<path d="M56.8273 32.5842H53.4372V28H50.0554V43.5287H53.4372V35.9678H56.8273V32.5842Z" fill="white"/>
<path d="M56.7836 39.0547C55.5436 39.0547 54.5354 40.0609 54.5354 41.2973C54.5354 42.5341 55.5436 43.5399 56.7824 43.5399H56.7832C58.0224 43.5399 59.0302 42.5337 59.0302 41.2973C59.0306 40.0609 58.0228 39.0547 56.7836 39.0547Z" fill="#18AE62"/>
<path d="M31.1924 32.3258C30.3746 32.3258 29.5981 32.5026 28.8964 32.8173V28.0117H25.5146V43.5404H28.8964V43.0489C29.5981 43.3636 30.3746 43.5404 31.1924 43.5404C34.2901 43.5404 36.8103 41.0252 36.8103 37.9335V37.9327C36.8103 34.841 34.2901 32.3258 31.1924 32.3258ZM31.1924 40.1765C29.9532 40.1765 28.9454 39.1703 28.9454 37.9327C28.9454 36.6959 29.9536 35.6901 31.1924 35.6901C32.4316 35.6901 33.4394 36.6963 33.4394 37.9339C33.4398 39.1703 32.4316 40.1765 31.1924 40.1765Z" fill="white"/>
<path d="M24.426 28.0117H13.2115V31.3869H20.0256L12 43.5404H16.4707L24.426 31.3869V28.0117Z" fill="#18AE62"/>
<path d="M43.4123 32.3379C40.3146 32.3379 37.7944 34.8531 37.7944 37.9448V37.9456C37.7944 38.2848 37.8262 38.6163 37.884 38.939C37.884 38.939 37.89 38.9759 37.8916 38.9848H37.8928C38.1351 40.2496 38.8091 41.4378 39.8928 42.3042C42.1848 44.1367 45.487 43.8805 47.4745 41.7934L45.0893 39.4129C44.3016 40.3037 42.9391 40.4292 42.0004 39.6787C41.7554 39.4827 41.5638 39.2453 41.4248 38.9848H48.9334C48.9969 38.648 49.0306 38.3008 49.0306 37.9456V37.9448C49.0302 34.8531 46.5101 32.3379 43.4123 32.3379ZM41.2702 37.2677C41.5586 36.3609 42.4097 35.7022 43.4123 35.7022C44.4149 35.7022 45.2661 36.3609 45.5545 37.2677H41.2702Z" fill="white"/>
</svg>
